<svg xmlns="http://www.w3.org/2000/svg" viewBox="0 0 24 24"><path d="M13.4 5c.2 0 .3.1.3.3l.3 1.9c.4.2.8.4 1.2.7l1.8-.7c.2-.1.3 0 .4.2l1.4 2.4c.1.2.1.4-.1.4l-1.5 1.1c0 .2.1.4.1.7s0 .5-.1.7l1.5 1.2c.3.1.3.2.3.4l-1.4 2.4c-.1.2-.3.2-.4.2l-1.8-.7c-.4.3-.8.5-1.2.7l-.3 1.8c0 .2-.2.3-.3.3h-2.9c-.2 0-.3-.1-.3-.3l-.3-1.8c-.4-.2-.8-.4-1.2-.7l-1.8.7c-.2.1-.3 0-.4-.2l-1.4-2.4c-.1-.2-.1-.4.1-.4l1.5-1.2c0-.2-.1-.4-.1-.7v-.7l-1.5-1.1c-.3-.1-.3-.3-.3-.5l1.4-2.4c.1-.2.3-.2.4-.2l1.8.7c.4-.3.8-.5 1.2-.7l.3-1.8c0-.2.2-.3.4-.3h2.9zM12 9.5c-1.4 0-2.5 1.1-2.5 2.5s1.1 2.5 2.5 2.5 2.5-1.1 2.5-2.5-1.1-2.5-2.5-2.5z"/></svg>