<?xml version="1.0" encoding="UTF-8"?>
<svg width="39px" height="50px" viewBox="0 0 39 50" version="1.1" xmlns="http://www.w3.org/2000/svg" xmlns:xlink="http://www.w3.org/1999/xlink">
    <!-- Generator: Sketch 61.2 (89653) - https://sketch.com -->
    <title>file</title>
    <desc>Created with Sketch.</desc>
    <g id="Стилевая" stroke="none" stroke-width="1" fill="none" fill-rule="evenodd">
        <g id="style_key" transform="translate(-46.000000, -3626.000000)" fill="#0E8938">
            <g id="Group-12" transform="translate(46.000000, 3626.000000)">
                <g id="file" transform="translate(0.000000, 0.000000)">
                    <path d="M38.1541322,1.13686838e-13 C38.575391,1.13686838e-13 38.9231322,0.315266272 38.9741382,0.722776137 L38.9805785,0.826446281 L38.9805785,38.2064463 L38.978843,38.2423967 C38.9767273,38.411719 38.9237818,38.5782909 38.8230109,38.7178664 L38.7385124,38.8171074 L27.9123967,49.6431405 C27.7806474,49.7748898 27.6119376,49.8551584 27.4348676,49.8782549 L27.3019008,49.8852066 L0.826446281,49.8852066 C0.40518754,49.8852066 0.0574463299,49.5698699 0.0064403375,49.1624142 L-2.27373675e-13,49.0587603 L-2.27373675e-13,0.826446281 C-2.27373675e-13,0.405111252 0.315336691,0.0574345934 0.722792388,0.00643898329 L0.826446281,1.13686838e-13 L38.1541322,1.13686838e-13 Z M37.327686,1.65289256 L1.65289256,1.65289256 L1.65289256,48.232314 L26.5015702,48.232314 L26.5015702,38.2327273 C26.5015702,37.8113922 26.8168365,37.4637156 27.2243464,37.41272 L27.3280165,37.406281 L37.327686,37.406281 L37.327686,1.65289256 Z M30.051157,45.1406612 L28.1544628,45.1406612 L28.1544628,47.0373554 L30.051157,45.1406612 Z M33.4367769,41.755124 L28.1544628,41.755124 L28.1544628,43.4877686 L31.7041322,43.4877686 L33.4367769,41.755124 Z M36.1327273,39.0591736 L28.1544628,39.0591736 L28.1544628,40.1022314 L35.0896694,40.1022314 L36.1327273,39.0591736 Z M21.2352314,8.65128926 L21.2352314,32.0507107 L7.58861983,29.6263306 L7.58861983,11.0756694 L21.2352314,8.65128926 Z M30.917405,11.054438 C31.1493976,11.054438 31.3438431,11.2281999 31.3841891,11.4556887 L31.3918678,11.543281 L31.3918678,28.6575785 C31.3918678,28.89655 31.2231993,29.0969296 31.0024726,29.1385081 L30.9174876,29.1464215 L21.6973223,29.1464215 L21.6973223,27.5785702 L25.1682314,27.5785702 L25.1682314,25.135595 L21.6973223,25.135595 L21.6973223,24.385595 L25.1682314,24.385595 L25.1682314,21.9425372 L21.6973223,21.9425372 L21.6973223,21.2078264 L25.1682314,21.2078264 L25.1682314,18.7647686 L21.6973223,18.7647686 L21.6973223,18.0300579 L25.1682314,18.0300579 L25.1682314,15.587 L21.6973223,15.587 L21.6973223,14.8523719 L25.1682314,14.8523719 L25.1682314,12.4092314 L21.6973223,12.4092314 L21.6973223,11.054438 L30.917405,11.054438 Z M29.7936033,25.1355124 L25.8833554,25.1355124 L25.8833554,27.5785702 L29.7936033,27.5785702 L29.7936033,25.1355124 Z M17.1496116,15.926 L15.6072149,16.004843 L14.3734959,18.9206281 L13.337876,16.2299669 L11.7294463,16.2299669 L13.4260579,20.1250909 L11.5972975,24.0990579 L13.1616777,24.0990579 L14.2852314,21.250876 L15.4310165,24.2567438 L17.2268017,24.3917025 L15.2217603,20.0913719 L17.1496116,15.926 Z M29.7936033,21.9424545 L25.8833554,21.9424545 L25.8833554,24.385595 L29.7936033,24.385595 L29.7936033,21.9424545 Z M29.7936033,18.7647686 L25.8833554,18.7647686 L25.8833554,21.2078264 L29.7936033,21.2078264 L29.7936033,18.7647686 Z M29.7936033,15.5869174 L25.8833554,15.5869174 L25.8833554,18.0300579 L29.7936033,18.0300579 L29.7936033,15.5869174 Z M29.7936033,12.4092314 L25.8833554,12.4092314 L25.8833554,14.8523719 L29.7936033,14.8523719 L29.7936033,12.4092314 Z" id="excel_icon"></path>
                </g>
            </g>
        </g>
    </g>
</svg>