<?xml version="1.0" encoding="UTF-8"?>
<svg width="39px" height="50px" viewBox="0 0 39 50" version="1.1" xmlns="http://www.w3.org/2000/svg" xmlns:xlink="http://www.w3.org/1999/xlink">
    <!-- Generator: Sketch 61.2 (89653) - https://sketch.com -->
    <title>Group 6</title>
    <desc>Created with Sketch.</desc>
    <g id="Стилевая" stroke="none" stroke-width="1" fill="none" fill-rule="evenodd">
        <g id="style_key" transform="translate(-46.000000, -3699.000000)" fill="#1F2532">
            <g id="Group-12-Copy" transform="translate(46.000000, 3699.000000)">
                <g id="Group-6">
                    <path d="M38.1541322,0.0826363636 C38.575391,0.0826363636 38.9231322,0.397902636 38.9741382,0.805412501 L38.9805785,0.909082645 L38.9805785,38.2891653 L38.978843,38.3250331 C38.9767273,38.4944215 38.9237818,38.6610066 38.8230109,38.8005425 L38.7385124,38.8997438 L27.9123967,49.7257769 C27.7806474,49.8575262 27.6118802,49.9377948 27.4348389,49.9608913 L27.3018182,49.967843 L0.826446281,49.967843 C0.40518754,49.967843 0.0574463299,49.6525767 0.0064403375,49.2450668 L1.77635684e-14,49.1413967 L1.77635684e-14,0.909082645 C1.77635684e-14,0.487747616 0.315336691,0.140070957 0.722792388,0.0890753469 L0.826446281,0.0826363636 L38.1541322,0.0826363636 Z M37.327686,1.73552893 L1.65289256,1.73552893 L1.65289256,48.3149504 L26.5015702,48.3149504 L26.5015702,38.3153636 C26.5015702,37.8941049 26.8168365,37.5463637 27.2243464,37.4953577 L27.3280165,37.4889174 L37.327686,37.4889174 L37.327686,1.73552893 Z M30.051157,45.2232975 L28.1544628,45.2232975 L28.1544628,47.1199917 L30.051157,45.2232975 Z M33.4366942,41.8377603 L28.1544628,41.8377603 L28.1544628,43.570405 L31.7040496,43.570405 L33.4366942,41.8377603 Z M36.1327273,39.1418099 L28.1544628,39.1418099 L28.1544628,40.1848678 L35.0896694,40.1848678 L36.1327273,39.1418099 Z M21.4738843,8.73389256 L21.4738843,11.7093471 L30.8960331,11.7093471 C31.1396327,11.7093471 31.3420284,11.8846109 31.3839978,12.1160321 L31.3919835,12.2052149 L31.3919835,29.065876 C31.3919835,29.3095491 31.2166544,29.5118877 30.9852186,29.5538435 L30.8960331,29.5618264 L21.4738843,29.5618264 L21.4738843,32.537281 L7.58859504,29.9499256 L7.58859504,11.3212479 L21.4738843,8.73389256 Z M30.4001653,12.7011653 L21.4738843,12.7011653 L21.4738843,14.1888512 L28.9123967,14.1888512 L28.9123967,15.1806694 L21.4738843,15.1806694 L21.4738843,17.1643058 L28.9123967,17.1643058 L28.9123967,18.1560413 L21.4738843,18.1560413 L21.4738843,20.1396777 L28.9123967,20.1396777 L28.9123967,21.1314959 L21.4738843,21.1314959 L21.4738843,23.1150496 L28.9123967,23.1150496 L28.9123967,24.1068678 L21.4738843,24.1068678 L21.4738843,26.0905041 L28.9123967,26.0905041 L28.9123967,27.0823223 L21.4738843,27.0823223 L21.4738843,28.5700083 L30.4001653,28.5700083 L30.4001653,12.7011653 Z M18.7104132,16.9011653 L17.1407438,17.0132314 L15.9938017,21.3130661 L14.8566942,17.1763719 L13.181157,17.296124 L12.0769421,21.3130661 L11.0461157,17.4486033 L9.53355372,17.5566198 L11.46,24.8438926 L12.6666942,24.9300909 L14.0353719,20.1396777 L15.4610744,25.1296777 L16.5152066,25.2049669 L18.7104132,16.9011653 Z" id="Shape"></path>
                </g>
            </g>
        </g>
    </g>
</svg>