<?xml version="1.0" encoding="UTF-8"?>
<svg width="39px" height="50px" viewBox="0 0 39 50" version="1.1" xmlns="http://www.w3.org/2000/svg" xmlns:xlink="http://www.w3.org/1999/xlink">
    <!-- Generator: Sketch 61.2 (89653) - https://sketch.com -->
    <title>Shape</title>
    <desc>Created with Sketch.</desc>
    <g id="Стилевая" stroke="none" stroke-width="1" fill="none" fill-rule="evenodd">
        <g id="style_key" transform="translate(-232.000000, -3480.000000)" fill="#F31B1B">
            <g id="Group-12-Copy-4" transform="translate(232.000000, 3480.000000)">
                <g id="Group-6">
                    <path d="M38.1541157,0.0826363636 C38.5753744,0.0826363636 38.9231157,0.397902636 38.9741216,0.805412501 L38.980562,0.909082645 L38.980562,38.2891653 L38.9788264,38.3250331 C38.9767107,38.4944215 38.9237653,38.6610066 38.8229944,38.8005425 L38.7384959,38.8997438 L27.9123802,49.7257769 C27.7806309,49.8575262 27.6118636,49.9377948 27.4348224,49.9608913 L27.3018017,49.967843 L0.826429752,49.967843 C0.405171011,49.967843 0.057429801,49.6525767 0.00642380857,49.2450668 L-1.65289258e-05,49.1413967 L-1.65289258e-05,0.909082645 C-1.65289258e-05,0.487747616 0.315320162,0.140070957 0.722775859,0.0890753469 L0.826429752,0.0826363636 L38.1541157,0.0826363636 Z M37.3276694,1.73552893 L1.65287603,1.73552893 L1.65287603,48.3149504 L26.5015537,48.3149504 L26.5015537,38.3153636 C26.5015537,37.8941049 26.81682,37.5463637 27.2243299,37.4953577 L27.328,37.4889174 L37.3276694,37.4889174 L37.3276694,1.73552893 Z M30.0511405,45.2232975 L28.1544463,45.2232975 L28.1544463,47.1199917 L30.0511405,45.2232975 Z M33.4367603,41.8377603 L28.1544463,41.8377603 L28.1544463,43.570405 L31.7041157,43.570405 L33.4367603,41.8377603 Z M36.1327107,39.1418099 L28.1544463,39.1418099 L28.1544463,40.1848678 L35.0896529,40.1848678 L36.1327107,39.1418099 Z M19.3342975,8.63479339 C19.5363636,8.69423554 19.7254132,8.78872934 19.8990405,8.88501291 L20.098595,8.99859504 C20.7795868,9.3222314 20.9904132,9.87330579 21.0461157,10.2849587 C21.0836157,10.5630785 21.0678409,10.8544473 21.0263004,11.2583626 L20.9192562,12.2252066 C20.7641322,13.6880165 20.3461983,15.9004132 19.6143802,18.2296694 L19.7470248,18.4866116 L19.7470248,18.4866116 C20.3053719,19.5349587 21.1131405,20.7396694 22.0820661,21.9685124 C22.5146281,22.5159504 23.008595,23.102314 23.5223967,23.6809917 C24.366281,23.6282645 25.2044628,23.6358678 26.0166116,23.7043802 C26.8790083,23.7746281 27.7750413,23.9167769 28.604876,24.1152893 C29.5420661,24.3445455 30.2193388,24.6109917 30.8064463,24.9807438 C31.5600826,25.4530579 32.1435537,26.0892562 32.4473554,26.7708264 C32.8036364,27.5592562 32.8153719,28.4604132 32.4767769,29.176281 C32.1724793,29.8230579 31.5919835,30.298843 30.7990083,30.55 C30.1021488,30.7747934 29.3681818,30.7772727 28.6234711,30.5558678 C27.9491736,30.3553719 27.1653719,29.94 26.293719,29.321157 C25.4383471,28.7180165 24.6295041,28.023719 23.6742975,27.0719835 C23.3322314,26.731157 22.9790909,26.3650413 22.6261983,25.986281 C22.1390437,26.0447226 21.5972424,26.1272694 20.9430251,26.2419883 L20.606281,26.3020661 C19.5656198,26.49 18.3928926,26.7255372 16.8675207,27.1729752 C16.2109091,27.3645455 15.5481818,27.5783471 14.9099174,27.8029752 L14.707686,28.1052893 L14.707686,28.1052893 C13.3723967,30.0827273 12.0639669,31.641157 10.923719,32.6117355 C10.0361157,33.3633884 9.20677686,33.7959504 8.38586777,33.9363636 C8.2214876,33.9646281 8.06958678,33.9776033 7.92966942,33.9776033 C7.12561983,33.9776033 6.71132231,33.5500826 6.50066116,33.1576033 C6.24578512,32.6832231 6.1892562,32.0591736 6.3414876,31.4003306 C6.50909091,30.6563636 6.91421488,29.9901653 7.61586777,29.3041322 C8.45785124,28.4839669 9.69876033,27.6538017 11.1116529,26.965124 C11.7936364,26.6342975 12.5952066,26.2964463 13.4587603,25.9730579 L13.8342661,25.3744963 C14.8087966,23.7930347 16.0268984,21.5929217 16.9333884,19.2080165 C17.0397521,18.9282645 17.141157,18.6475207 17.237686,18.3668595 C16.9264463,17.6361157 16.7313223,17.0081818 16.5782645,16.4638843 C16.2891736,15.4383471 16.1038843,14.5132231 16.0273554,13.714876 C15.952314,12.9282645 15.9666942,12.148843 16.07,11.3976033 C16.1744628,10.6187603 16.3471901,10.0820661 16.6296694,9.66132231 C16.9093388,9.24512397 17.3177686,8.9292562 17.8113223,8.7468595 C17.9989256,8.6761708 18.1547199,8.64232323 18.2749342,8.62349862 L18.4809091,8.59661157 L18.6212474,8.57478951 C18.7892924,8.55399793 19.0370868,8.54572314 19.3342975,8.63479339 Z M10.6976033,29.7190083 C9.9146281,30.2093388 9.42454545,30.6336364 9.16239669,30.8890083 C8.89991736,31.1456198 8.74338843,31.3515702 8.64719008,31.5199174 C8.86991736,31.3986777 9.14950413,31.2123967 9.49057851,30.923719 C9.80115702,30.6593388 10.205124,30.2736364 10.6976033,29.7190083 Z M25.6391736,25.8961983 C26.3303306,26.5582645 26.9403306,27.0676033 27.5728099,27.5133884 C28.4142149,28.1107438 28.951405,28.3431405 29.2545455,28.4332231 C29.5759504,28.528843 29.8443802,28.531157 30.124876,28.4406612 C30.308595,28.3824793 30.4403306,28.3029752 30.4738843,28.2314876 C30.5147107,28.1450413 30.5370248,27.9208264 30.4271074,27.6775207 C30.3018182,27.3965289 30.0042149,27.0912397 29.6284298,26.8557851 C29.2499174,26.617438 28.7742149,26.4364463 28.0841322,26.267686 C27.511438,26.1306281 26.8976463,26.0240893 26.2887524,25.9554744 L25.833719,25.9112397 C25.7690909,25.9057851 25.7042149,25.9008264 25.6391736,25.8961983 Z M18.6253719,20.941157 C18.0190909,22.3903306 17.3271074,23.7489256 16.6661157,24.9268595 C18.0870248,24.5277686 19.208595,24.3042149 20.2120661,24.1229752 L20.882562,24.0053719 L20.882562,24.0053719 C20.6955372,23.7797521 20.5152066,23.5572727 20.3438017,23.3404132 C19.7010744,22.5252066 19.1209091,21.7146281 18.6253719,20.941157 Z M18.842314,10.8313223 L18.7717355,10.7926446 L18.7717355,10.7926446 L18.6045338,10.8146152 L18.6045338,10.8146152 L18.5801653,10.8235537 C18.5547934,10.8328926 18.4929752,10.8585124 18.4680165,10.8959504 L18.4463188,10.9341223 C18.4049129,11.0168978 18.3273854,11.2247258 18.2642975,11.6956198 C18.1850413,12.2728926 18.1738843,12.8969421 18.2318182,13.5042149 C18.2557025,13.7533058 18.2929752,14.0202479 18.3438843,14.3038017 C18.5057231,13.5150723 18.6202324,12.8070183 18.6901251,12.2300223 L18.8296707,10.9694925 C18.8344835,10.9205475 18.8387603,10.8741736 18.842314,10.8313223 Z" id="Shape"></path>
                </g>
            </g>
        </g>
    </g>
</svg>