<svg xmlns="http://www.w3.org/2000/svg" viewBox="0 0 24 24"><path d="M21.6 11.4l-1.8 8.9c-.1.6-.7 1.2-1.3 1.2H5.7c-.6 0-1.2-.5-1.3-1.2l-1.8-8.9H2c-.4 0-.8-.2-1.1-.5-.3-.3-.4-.7-.4-1.2 0-.4.2-.8.4-1.2.3-.3.7-.5 1.1-.5h6.3l2.1-3.8c-.2-.2-.3-.4-.3-.7 0-.5.4-1 1-1 .4 0 .7.2.9.5.2-.3.5-.5.9-.5.5 0 1 .4 1 1 0 .3-.1.5-.3.7L15.7 8H22c.4 0 .8.2 1.1.5.3.3.4.7.4 1.2 0 .4-.2.8-.4 1.2-.3.3-.7.5-1.1.5h-.4zM9.1 8h5.7l-1.9-3.5h-.1c-.4 0-.7-.2-.9-.5-.2.3-.5.5-.9.5h-.1L9.1 8zM7.3 19.2v-5.3c0-.4-.3-.8-.7-.8-.4 0-.7.3-.7.8v5.3c0 .4.3.8.7.8.4-.1.7-.4.7-.8zm2.7 0v-5.3c0-.4-.3-.8-.7-.8-.4 0-.7.3-.7.8v5.3c0 .4.3.8.7.8.4-.1.7-.4.7-.8zm2.7 0v-5.3c0-.4-.3-.8-.7-.8-.4 0-.7.3-.7.8v5.3c0 .4.3.8.7.8.4-.1.7-.4.7-.8zm2.8 0v-5.3c0-.4-.3-.8-.7-.8-.4 0-.7.3-.7.8v5.3c0 .4.3.8.7.8.3-.1.7-.4.7-.8zm2.7 0v-5.3c0-.4-.3-.8-.7-.8-.4 0-.7.3-.7.8v5.3c0 .4.3.8.7.8.4-.1.7-.4.7-.8z"/></svg>