<?xml version="1.0" encoding="UTF-8"?>
<svg width="39px" height="50px" viewBox="0 0 39 50" version="1.1" xmlns="http://www.w3.org/2000/svg" xmlns:xlink="http://www.w3.org/1999/xlink">
    <!-- Generator: Sketch 61.2 (89653) - https://sketch.com -->
    <title>Shape</title>
    <desc>Created with Sketch.</desc>
    <g id="Стилевая" stroke="none" stroke-width="1" fill="none" fill-rule="evenodd">
        <g id="style_key" transform="translate(-46.000000, -3553.000000)" fill="#1F2532">
            <g id="Group-12-Copy-5" transform="translate(46.000000, 3553.000000)">
                <path d="M38.1577984,8.17124146e-13 C38.6064702,8.17124146e-13 38.9717529,0.357598276 38.9843241,0.803390219 L38.9843241,38.2102001 L38.9825884,38.2460713 C38.9800585,38.4486204 38.9048562,38.6471616 38.7621173,38.8002476 L27.9150788,49.6479106 C27.7833168,49.7796726 27.6145333,49.8599489 27.4374751,49.8830476 L27.3044416,49.89 L0.826525693,49.89 C0.377853925,49.89 0.0125711685,49.5324017 1.77635684e-14,49.0866098 L1.77635684e-14,0.826525693 C1.77635684e-14,0.377772674 0.357678151,0.0125684142 0.80339428,8.17124146e-13 L38.1577984,8.17124146e-13 Z M37.3312727,1.65305139 L1.65305139,1.65305139 L1.65305139,48.2369486 L26.5041167,48.2369486 L26.5041167,38.236401 C26.5041167,37.8222424 26.8088159,37.4791372 27.2063201,37.4191647 L27.3306424,37.4098753 L37.3312727,37.4098753 L37.3312727,1.65305139 Z M30.0540446,45.1449986 L28.1571681,45.1449986 L28.1571681,47.0418751 L30.0540446,45.1449986 Z M33.4399897,41.7591361 L28.1571681,41.7591361 L28.1571681,43.4919473 L31.7071786,43.4919473 L33.4399897,41.7591361 Z M36.1361992,39.0629267 L28.1571681,39.0629267 L28.1571681,40.1060848 L35.0930411,40.1060848 L36.1361992,39.0629267 Z M19.2000004,13 C19.7522852,13 20.2000004,13.4477153 20.2000004,14 L20.2,27.412 L21.7213203,25.8928932 C22.0818043,25.5324093 22.6490354,25.5046797 23.0413266,25.8097046 L23.1355339,25.8928932 C23.4960179,26.2533772 23.5237474,26.8206082 23.2187225,27.2128994 L23.1355339,27.3071068 L22.7052553,27.8158217 C20.8904379,29.9386072 19.7220196,31 19.2000004,31 C18.637826,31 17.3354569,29.7690356 15.2928932,27.3071068 C14.9023689,26.9165825 14.9023689,26.2834175 15.2928932,25.8928932 C15.6834175,25.5023689 16.3165825,25.5023689 16.7071068,25.8928932 L18.2,27.384 L18.2000004,14 C18.2000004,13.4477153 18.6477157,13 19.2000004,13 Z" id="Shape"></path>
            </g>
        </g>
    </g>
</svg>