<?xml version="1.0" encoding="UTF-8"?>
<svg width="39px" height="50px" viewBox="0 0 39 50" version="1.1" xmlns="http://www.w3.org/2000/svg" xmlns:xlink="http://www.w3.org/1999/xlink">
    <!-- Generator: Sketch 61.2 (89653) - https://sketch.com -->
    <title>jpeg_icon</title>
    <desc>Created with Sketch.</desc>
    <g id="Стилевая" stroke="none" stroke-width="1" fill="none" fill-rule="evenodd">
        <g id="style_key" transform="translate(-46.000000, -3270.000000)" fill="#D9E021">
            <g id="Group-5" transform="translate(26.000000, 3095.000000)">
                <g id="Group-2-Copy">
                    <g id="Group-2" transform="translate(20.000000, 175.000000)">
                        <g id="Group-12">
                            <path d="M38.1577984,-2.91322522e-13 C38.6064702,-2.91322522e-13 38.9717529,0.357598276 38.9843241,0.803390219 L38.9843241,0.826525693 L38.9843241,38.2102001 C38.9843241,38.2221848 38.9830843,38.2341694 38.9825884,38.2460713 C38.9800585,38.4486204 38.9048562,38.6471616 38.7621173,38.8002476 L38.7422347,38.8208373 L27.9150788,49.6479106 C27.7569644,49.806025 27.5455391,49.89 27.3304771,49.89 L27.3173354,49.8893388 L27.3044416,49.89 L0.826525693,49.89 C0.377853925,49.89 0.0125711685,49.5324017 3.55271368e-15,49.0866098 L3.55271368e-15,49.0634743 L3.55271368e-15,0.826525693 C3.55271368e-15,0.377772674 0.357678151,0.0125684142 0.80339428,-2.91322522e-13 L0.826525693,-2.91322522e-13 L38.1577984,-2.91322522e-13 Z M37.3312727,1.65305139 L1.65305139,1.65305139 L1.65305139,48.2369486 L26.5041167,48.2369486 L26.5041167,38.236401 C26.5041167,37.7877292 26.861715,37.4224465 27.307507,37.4101929 L27.3306424,37.4098753 L37.3312727,37.4098753 L37.3312727,1.65305139 Z M30.0540446,45.1449986 L28.1571681,45.1449986 L28.1571681,47.0418751 L30.0540446,45.1449986 Z M33.4399897,41.7591361 L28.1571681,41.7591361 L28.1571681,43.4919473 L31.7071786,43.4919473 L33.4399897,41.7591361 Z M36.1361992,39.0629267 L28.1571681,39.0629267 L28.1571681,40.1060848 L35.0930411,40.1060848 L36.1361992,39.0629267 Z M30.1031567,11.8650243 C32.1698371,11.8650243 33.8263751,13.5090772 33.8592992,15.5496277 L33.8597987,15.6115826 L33.8597987,24.3601091 C33.8597987,26.4090332 32.2112903,28.0730894 30.1652775,28.1061656 L30.1031567,28.1066674 L8.88120041,28.1066674 C6.81460185,28.1066674 5.15798368,26.4626144 5.12505798,24.422064 L5.12455848,24.3601091 L5.12455848,15.6115826 C5.12455848,13.5627403 6.77298586,11.8986039 8.81907721,11.8655261 L8.88120041,11.8650243 L30.1031567,11.8650243 Z M15.1194857,15.613153 L13.8700268,15.613153 L13.8700268,21.8714402 C13.8700268,22.5458025 13.3112955,23.1092451 12.6220557,23.1092451 L11.3700346,23.1092451 C10.6750091,23.1092451 10.1220634,22.5498525 10.1220634,21.8598689 L10.1220634,20.6105753 L8.87260454,20.6105753 L8.87260454,21.8525128 C8.87260454,23.2366127 9.98940605,24.3586213 11.3774733,24.3586213 L12.614617,24.3586213 C13.997973,24.3586213 15.1194857,23.2509943 15.1194857,21.8525128 L15.1194857,15.613153 Z M20.1107091,15.613153 L16.3687793,15.613153 L16.3687793,24.3586213 L17.6181555,24.3586213 L17.6181555,20.6105753 L20.1107091,20.6105753 C21.4941478,20.6105753 22.6155778,19.5014605 22.6155778,18.1118228 C22.6155778,16.7318555 21.4987763,15.613153 20.1107091,15.613153 Z M30.11167,15.613153 L26.3697402,15.613153 C24.9863841,15.613153 23.8648714,16.7207801 23.8648714,18.1191789 L23.8648714,21.8525128 C23.8648714,23.2366127 24.9817556,24.3586213 26.3697402,24.3586213 L30.11167,24.3586213 L30.11167,19.3611991 L26.3637066,19.3611991 L26.3637066,20.6105753 L28.8623764,20.6105753 L28.8623764,23.1092451 L26.3634586,23.1092451 C25.6685984,23.1092451 25.1142477,22.5500178 25.1142477,21.8601168 L25.1142477,18.1115749 C25.1142477,17.4167974 25.6735576,16.8624466 26.3634586,16.8624466 L30.11167,16.8624466 L30.11167,15.613153 Z M20.1181555,16.8624466 C20.8131733,16.8624466 21.3662016,17.4218392 21.3662016,18.1118228 C21.3662016,18.7978057 20.8215258,19.3471361 20.144261,19.3609333 L20.1181555,19.3611991 L17.6181555,19.3611991 L17.6181555,16.8624466 L20.1181555,16.8624466 Z" id="jpeg_icon"></path>
                        </g>
                    </g>
                </g>
            </g>
        </g>
    </g>
</svg>