<?xml version="1.0" encoding="utf-8"?>
<!-- Generator: Adobe Illustrator 23.0.1, SVG Export Plug-In . SVG Version: 6.00 Build 0)  -->
<svg version="1.1" id="Слой_1" xmlns="http://www.w3.org/2000/svg" xmlns:xlink="http://www.w3.org/1999/xlink" x="0px" y="0px"
	 viewBox="0 0 82 30" style="enable-background:new 0 0 82 30;" xml:space="preserve">
<style type="text/css">
	.st0{fill-rule:evenodd;clip-rule:evenodd;}
	.st1{fill-rule:evenodd;clip-rule:evenodd;fill:#0E8938;}
	.st2{fill-rule:evenodd;clip-rule:evenodd;fill:#D9E021;}
	.st3{fill-rule:evenodd;clip-rule:evenodd;fill:#F15A24;}
	.st4{fill:#009848;}
</style>
<title>Group 34</title>
<desc>Created with Sketch.</desc>
<g id="Group-34" transform="translate(28.000000, 130.000000)">
	<g id="Group-9">
		<path id="Fill-1" class="st0" d="M-18.2-127c0.1-0.7,0.5-1.4,1.2-2c-0.7,0-1.5,0-2.2,0.3c-0.7,0.2-1.3,0.5-1.8,0.9
			C-20-127.7-19-127.5-18.2-127"/>
		<path id="Fill-3" class="st0" d="M-8.7-104c0.8,0.4,1.7,0.7,2.7,0.8c-0.5,0.4-1.1,0.7-1.9,1c-0.7,0.2-1.4,0.3-2.1,0.3
			C-9.3-102.6-8.9-103.3-8.7-104"/>
		<path id="Fill-5" class="st0" d="M-25-120.3c-0.4-0.8-0.7-1.7-0.8-2.7c-0.4,0.5-0.7,1.1-1,1.9c-0.2,0.7-0.3,1.4-0.3,2.1
			C-26.4-119.7-25.7-120.1-25-120.3"/>
		<path id="Fill-7" class="st0" d="M-1-110.8c0.7-0.1,1.4-0.5,2-1.2c0,0.7,0,1.5-0.3,2.2c-0.2,0.7-0.5,1.3-0.9,1.8
			C-0.3-109-0.5-110-1-110.8"/>
		<path id="Fill-9" class="st0" d="M-25-110.8c-0.7-0.1-1.4-0.5-2-1.2c0,0.7,0,1.5,0.3,2.2c0.2,0.7,0.5,1.3,0.9,1.8
			C-25.7-109-25.5-110-25-110.8"/>
		<path id="Fill-11" class="st0" d="M-1-120.3c0.4-0.8,0.7-1.7,0.8-2.7c0.4,0.5,0.7,1.1,1,1.9c0.2,0.7,0.3,1.4,0.3,2.1
			C0.4-119.7-0.3-120.1-1-120.3"/>
		<path id="Fill-13" class="st0" d="M-18.3-104c-0.8,0.4-1.7,0.7-2.7,0.8c0.5,0.4,1.1,0.7,1.9,1c0.7,0.2,1.4,0.3,2.1,0.3
			C-17.7-102.6-18.1-103.3-18.3-104"/>
		<path id="Fill-15" class="st0" d="M-8.8-127c-0.1-0.7-0.5-1.4-1.2-2c0.7,0,1.5,0,2.2,0.3c0.7,0.2,1.3,0.5,1.8,0.9
			C-7-127.7-8-127.5-8.8-127"/>
		<path id="Fill-17" class="st1" d="M-16-123.5c0,2.7,1.2,5,3,6.5c1.8-1.5,3-3.8,3-6.5s-1.2-5-3-6.5C-14.8-128.5-16-126.2-16-123.5"
			/>
		<path id="Fill-19" class="st1" d="M-16-106.5c0,2.7,1.2,5,3,6.5c1.8-1.5,3-3.8,3-6.5s-1.2-5-3-6.5C-14.8-111.5-16-109.2-16-106.5"
			/>
		<path id="Fill-21" class="st2" d="M-21.8-119.2c1.8,1.8,4.3,2.5,6.7,2.1c0.4-2.4-0.3-4.8-2.1-6.7c-1.8-1.8-4.3-2.5-6.7-2.1
			C-24.3-123.6-23.6-121.1-21.8-119.2"/>
		<path id="Fill-23" class="st2" d="M-9.8-107.2c1.8,1.8,4.3,2.5,6.7,2.1c0.4-2.4-0.3-4.8-2.1-6.7c-1.8-1.8-4.3-2.5-6.7-2.1
			C-12.3-111.6-11.6-109.1-9.8-107.2"/>
		<path id="Fill-25" class="st1" d="M-21.5-112c2.7,0,5-1.2,6.5-3c-1.5-1.8-3.8-3-6.5-3s-5,1.2-6.5,3C-26.5-113.2-24.2-112-21.5-112
			"/>
		<path id="Fill-27" class="st1" d="M-4.5-112c2.7,0,5-1.2,6.5-3c-1.5-1.8-3.8-3-6.5-3s-5,1.2-6.5,3C-9.5-113.2-7.2-112-4.5-112"/>
		<path id="Fill-29" class="st3" d="M-17.2-107.2c1.8-1.8,2.5-4.3,2.1-6.7c-2.4-0.4-4.8,0.3-6.7,2.1c-1.8,1.8-2.5,4.3-2.1,6.7
			C-21.6-104.7-19.1-105.4-17.2-107.2"/>
		<path id="Fill-31" class="st3" d="M-5.2-119.2c1.8-1.8,2.5-4.3,2.1-6.7c-2.4-0.4-4.8,0.3-6.7,2.1c-1.8,1.8-2.5,4.3-2.1,6.7
			C-9.6-116.7-7.1-117.4-5.2-119.2"/>
	</g>
	<g id="B2B-Flovers" transform="translate(37.000000, 3.000000)">
		<g id="Group-5">
			<path id="B2B" class="st4" d="M-24.2-120.1c1.1,0,2-0.3,2.6-0.7c0.6-0.5,0.9-1.2,0.9-2.1c0-0.5-0.1-1-0.4-1.4
				c-0.3-0.4-0.7-0.6-1.2-0.8c0.4-0.2,0.8-0.4,1-0.8c0.2-0.4,0.4-0.8,0.4-1.3c0-0.9-0.3-1.5-0.9-2c-0.6-0.5-1.5-0.7-2.7-0.7l0,0H-28
				v9.7H-24.2z M-24.5-125.8H-26v-2.5h1.4c0.6,0,1,0.1,1.2,0.3c0.3,0.2,0.4,0.5,0.4,1C-22.9-126.2-23.4-125.8-24.5-125.8
				L-24.5-125.8z M-24.2-121.7H-26v-2.6h1.9c0.9,0,1.4,0.5,1.4,1.4c0,0.4-0.1,0.7-0.4,0.9C-23.4-121.8-23.7-121.7-24.2-121.7
				L-24.2-121.7z M-12.6-120.1v-1.6h-4.2l2.2-2.3c0.6-0.7,1-1.2,1.3-1.7c0.3-0.5,0.4-1,0.4-1.5c0-0.9-0.3-1.6-0.8-2
				s-1.4-0.7-2.4-0.7c-0.7,0-1.3,0.1-1.8,0.4c-0.5,0.3-0.9,0.7-1.2,1.2c-0.3,0.5-0.4,1-0.4,1.6l0,0h2c0-0.5,0.1-0.9,0.4-1.2
				c0.3-0.3,0.6-0.5,1-0.5c0.4,0,0.7,0.1,0.9,0.4s0.3,0.6,0.3,1c0,0.3-0.1,0.7-0.3,1c-0.2,0.4-0.5,0.8-1,1.2l0,0l-3.2,3.4v1.3H-12.6
				z M-7.4-120.1c1.1,0,2-0.3,2.6-0.7c0.6-0.5,0.9-1.2,0.9-2.1c0-0.5-0.1-1-0.4-1.4c-0.3-0.4-0.7-0.6-1.2-0.8c0.4-0.2,0.8-0.4,1-0.8
				c0.2-0.4,0.4-0.8,0.4-1.3c0-0.9-0.3-1.5-0.9-2c-0.6-0.5-1.5-0.7-2.7-0.7l0,0h-3.5v9.7H-7.4z M-7.7-125.8h-1.5v-2.5h1.4
				c0.6,0,1,0.1,1.2,0.3c0.3,0.2,0.4,0.5,0.4,1C-6.1-126.2-6.6-125.8-7.7-125.8L-7.7-125.8z M-7.4-121.7h-1.7v-2.6h1.9
				c0.9,0,1.4,0.5,1.4,1.4c0,0.4-0.1,0.7-0.4,0.9C-6.6-121.8-6.9-121.7-7.4-121.7L-7.4-121.7z"/>
			<path id="Flovers" d="M-26-105.4v-4h3.9v-1.6H-26v-2.5h4.4v-1.6H-28v9.7H-26z M-18.5-105.4v-10.3h-2v10.3H-18.5z M-13.7-105.3
				c1.1,0,1.9-0.3,2.5-1c0.6-0.7,0.9-1.6,0.9-2.7l0,0l0-0.5c-0.1-1-0.4-1.8-1-2.4c-0.6-0.6-1.4-0.9-2.4-0.9c-0.7,0-1.3,0.2-1.8,0.5
				c-0.5,0.3-0.9,0.7-1.2,1.3c-0.3,0.6-0.4,1.2-0.4,1.9l0,0v0.1c0,1.2,0.3,2.1,0.9,2.7C-15.6-105.6-14.7-105.3-13.7-105.3z
				 M-13.7-106.9c-0.5,0-0.9-0.2-1.1-0.5c-0.3-0.4-0.4-0.9-0.4-1.6c0-0.8,0.1-1.3,0.4-1.7c0.3-0.4,0.6-0.6,1.1-0.6
				c0.5,0,0.9,0.2,1.1,0.6c0.3,0.4,0.4,0.9,0.4,1.6c0,0.8-0.1,1.4-0.4,1.7S-13.2-106.9-13.7-106.9z M-5.5-105.4l2.5-7.2h-2l-1.4,4.9
				l-1.4-4.9h-2l2.5,7.2H-5.5z M1-105.3c0.6,0,1.2-0.1,1.7-0.3c0.5-0.2,0.9-0.6,1.2-1l0,0l-1-1.1c-0.4,0.5-1,0.8-1.8,0.8
				c-0.5,0-0.9-0.1-1.2-0.4c-0.3-0.3-0.5-0.7-0.6-1.1l0,0H4v-0.8c0-1.1-0.3-2-0.9-2.7s-1.4-0.9-2.4-0.9c-0.7,0-1.3,0.2-1.8,0.5
				c-0.5,0.3-0.9,0.8-1.2,1.3c-0.3,0.6-0.4,1.2-0.4,2l0,0v0.2c0,1.1,0.3,2,1,2.6C-0.9-105.6-0.1-105.3,1-105.3z M2.1-109.7h-2.7
				c0.1-0.5,0.2-0.9,0.5-1.1c0.2-0.3,0.6-0.4,0.9-0.4c0.4,0,0.7,0.1,1,0.4s0.3,0.6,0.4,1l0,0V-109.7z M7.1-105.4v-4.7
				c0.2-0.5,0.7-0.7,1.5-0.7c0.2,0,0.4,0,0.7,0.1l0,0l0-1.9c-0.2-0.1-0.4-0.1-0.6-0.1c-0.7,0-1.2,0.3-1.6,1l0,0L7-112.7H5.1v7.2H7.1
				z M13-105.3c0.9,0,1.6-0.2,2.2-0.6c0.6-0.4,0.9-0.9,0.9-1.6c0-0.9-0.5-1.6-1.6-1.9c-0.3-0.1-0.7-0.2-1.2-0.3
				c-0.5-0.1-0.8-0.2-1-0.3c-0.2-0.1-0.3-0.3-0.3-0.5c0-0.2,0.1-0.4,0.3-0.6c0.2-0.1,0.4-0.2,0.8-0.2c0.4,0,0.7,0.1,0.8,0.3
				s0.3,0.4,0.3,0.7l0,0h2c0-0.7-0.3-1.3-0.8-1.7c-0.6-0.4-1.3-0.6-2.2-0.6c-0.9,0-1.6,0.2-2.1,0.6c-0.5,0.4-0.8,1-0.8,1.6
				c0,1.1,0.9,1.8,2.6,2.2c0.5,0.1,0.9,0.2,1.1,0.4c0.2,0.1,0.4,0.3,0.4,0.6c0,0.2-0.1,0.4-0.3,0.6c-0.2,0.1-0.5,0.2-0.8,0.2
				c-0.4,0-0.7-0.1-1-0.3c-0.2-0.2-0.4-0.4-0.4-0.8l0,0H9.8c0,0.4,0.1,0.8,0.4,1.2c0.3,0.4,0.6,0.7,1.1,0.9
				C11.8-105.4,12.4-105.3,13-105.3z"/>
		</g>
	</g>
</g>
</svg>
