<?xml version="1.0" encoding="UTF-8"?>
<svg width="77px" height="30px" viewBox="0 0 77 30" version="1.1" xmlns="http://www.w3.org/2000/svg" xmlns:xlink="http://www.w3.org/1999/xlink">
    <!-- Generator: Sketch 61.2 (89653) - https://sketch.com -->
    <title>Group 50</title>
    <desc>Created with Sketch.</desc>
    <defs>
        <polygon id="path-1" points="0.0847647059 0.534117647 6.44005882 0.534117647 6.44005882 12.9511176 0.0847647059 12.9511176"></polygon>
        <polygon id="path-3" points="0.0847647059 0.524294118 6.44005882 0.524294118 6.44005882 12.9411765 0.0847647059 12.9411765"></polygon>
        <polygon id="path-5" points="0 29.4660588 76.7158824 29.4660588 76.7158824 0.588411765 0 0.588411765"></polygon>
    </defs>
    <g id="Symbols" stroke="none" stroke-width="1" fill="none" fill-rule="evenodd">
        <g id="client/menu" transform="translate(-26.000000, -17.000000)">
            <g id="меню">
                <g id="Group-50" transform="translate(26.000000, 17.000000)">
                    <path d="M9.79323529,3.67558824 C9.90264706,2.83147059 10.2591176,2.03323529 10.8197059,1.38852941 C10.1726471,1.34323529 9.50558824,1.44205882 8.865,1.70676471 C8.26323529,1.95676471 7.74794118,2.32676471 7.335,2.77735294 C8.22852941,2.81617647 9.08852941,3.13264706 9.79323529,3.67558824" id="Fill-1" fill="#000000"></path>
                    <path d="M19.1808824,26.3387647 C19.855,26.8587647 20.6714706,27.1705294 21.5232353,27.2305294 C21.0979412,27.7205294 20.5561765,28.1217059 19.9161765,28.3864118 C19.3144118,28.6358235 18.6885294,28.7387647 18.0779412,28.7122941 C18.6820588,28.0528824 19.0667647,27.2211176 19.1808824,26.3387647" id="Fill-3" fill="#000000"></path>
                    <path d="M3.11064706,10.2777647 C2.59123529,9.60364706 2.27888235,8.78717647 2.21888235,7.93541176 C1.72947059,8.36011765 1.32770588,8.90188235 1.063,9.54188235 C0.813,10.1436471 0.710647059,10.7701176 0.737117647,11.3807059 C1.39652941,10.7765882 2.22829412,10.3918824 3.11064706,10.2777647" id="Fill-5" fill="#000000"></path>
                    <path d="M25.7738235,19.6648235 C26.6179412,19.5554118 27.4161765,19.1989412 28.0608824,18.6389412 C28.1061765,19.286 28.0073529,19.9530588 27.7420588,20.5930588 C27.4926471,21.1954118 27.1226471,21.7107059 26.6720588,22.1236471 C26.6332353,21.2295294 26.3167647,20.3695294 25.7738235,19.6648235" id="Fill-7" fill="#000000"></path>
                    <path d="M3.06558824,19.6579412 C2.22147059,19.5485294 1.42323529,19.1920588 0.778529412,18.6320588 C0.733235294,19.2791176 0.832058824,19.9461765 1.09735294,20.5861765 C1.34676471,21.1885294 1.71735294,21.7038235 2.16735294,22.1167647 C2.20617647,21.2226471 2.52264706,20.3626471 3.06558824,19.6579412" id="Fill-9" fill="#000000"></path>
                    <path d="M25.7287059,10.2708824 C26.2481176,9.59676471 26.5604706,8.78029412 26.6204706,7.92852941 C27.1104706,8.35323529 27.5116471,8.895 27.7769412,9.535 C28.0263529,10.1367647 28.1287059,10.7632353 28.1022353,11.3738235 C27.4428235,10.7697059 26.6110588,10.385 25.7287059,10.2708824" id="Fill-11" fill="#000000"></path>
                    <path d="M9.66770588,26.3410588 C8.99358824,26.8604706 8.17711765,27.1722353 7.32535294,27.2328235 C7.75064706,27.7222353 8.29241176,28.1234118 8.93241176,28.3887059 C9.53417647,28.6381176 10.1600588,28.7404706 10.7706471,28.714 C10.1665294,28.0551765 9.78182353,27.2228235 9.66770588,26.3410588" id="Fill-13" fill="#000000"></path>
                    <path d="M19.0550588,3.67735294 C18.9456471,2.83323529 18.5891765,2.03558824 18.0291765,1.39029412 C18.6762353,1.345 19.3432941,1.44382353 19.9832941,1.70911765 C20.5850588,1.95852941 21.1003529,2.32911765 21.5132941,2.77970588 C20.6197647,2.81794118 19.7597647,3.13441176 19.0550588,3.67735294" id="Fill-15" fill="#000000"></path>
                    <g id="Group-19" transform="translate(11.176471, 0.054294)">
                        <mask id="mask-2" fill="white">
                            <use xlink:href="#path-1"></use>
                        </mask>
                        <g id="Clip-18"></g>
                        <path d="M0.0847647059,6.74229412 C0.0847647059,9.29817647 1.33829412,11.5599412 3.26241176,12.9511176 C5.18652941,11.5599412 6.44005882,9.29817647 6.44005882,6.74229412 C6.44005882,4.18641176 5.18652941,1.92523529 3.26241176,0.533470588 C1.33829412,1.92523529 0.0847647059,4.18641176 0.0847647059,6.74229412" id="Fill-17" fill="#0E8938" mask="url(#mask-2)"></path>
                    </g>
                    <g id="Group-22" transform="translate(11.176471, 16.524882)">
                        <mask id="mask-4" fill="white">
                            <use xlink:href="#path-3"></use>
                        </mask>
                        <g id="Clip-21"></g>
                        <path d="M0.0847647059,6.73252941 C0.0847647059,9.28841176 1.33829412,11.5501765 3.26241176,12.9413529 C5.18652941,11.5501765 6.44005882,9.28841176 6.44005882,6.73252941 C6.44005882,4.17664706 5.18652941,1.91547059 3.26241176,0.524294118 C1.33829412,1.91547059 0.0847647059,4.17664706 0.0847647059,6.73252941" id="Fill-20" fill="#0E8938" mask="url(#mask-4)"></path>
                    </g>
                    <path d="M6.37211765,11.4542353 C8.17917647,13.2612941 10.6650588,13.9742353 13.0091765,13.5977647 C13.3862353,11.2530588 12.6732941,8.76776471 10.8662353,6.96011765 C9.05858824,5.15305882 6.57329412,4.44011765 4.22917647,4.81717647 C3.85211765,7.16129412 4.56505882,9.64717647 6.37211765,11.4542353" id="Fill-23" fill="#D9E021"></path>
                    <path d="M18.0118824,23.0937059 C19.8189412,24.9007647 22.3048235,25.6142941 24.6489412,25.2372353 C25.026,22.8925294 24.3124706,20.4072353 22.5054118,18.5995882 C20.6983529,16.7925294 18.2130588,16.0795882 15.8683529,16.4572353 C15.4912941,18.8007647 16.2048235,21.2866471 18.0118824,23.0937059" id="Fill-25" fill="#D9E021"></path>
                    <path d="M6.20841176,18.2045882 C8.76429412,18.2045882 11.0260588,16.9510588 12.4172353,15.0275294 C11.0260588,13.1028235 8.76429412,11.8492941 6.20841176,11.8492941 C3.65252941,11.8492941 1.39135294,13.1028235 0.000176470588,15.0275294 C1.39135294,16.9510588 3.65252941,18.2045882 6.20841176,18.2045882" id="Fill-27" fill="#0E8938"></path>
                    <path d="M22.6694706,18.2045882 C25.2253529,18.2045882 27.4865294,16.9510588 28.8777059,15.0275294 C27.4865294,13.1028235 25.2253529,11.8492941 22.6694706,11.8492941 C20.1135882,11.8492941 17.8518235,13.1028235 16.4606471,15.0275294 C17.8518235,16.9510588 20.1135882,18.2045882 22.6694706,18.2045882" id="Fill-29" fill="#0E8938"></path>
                    <path d="M10.866,23.0937059 C12.6730588,21.2866471 13.3865882,18.8007647 13.0095294,16.4572353 C10.6648235,16.0795882 8.17952941,16.7925294 6.37188235,18.5995882 C4.56482353,20.4072353 3.85188235,22.8925294 4.22894118,25.2372353 C6.57305882,25.6142941 9.05894118,24.9007647 10.866,23.0937059" id="Fill-31" fill="#F15A24"></path>
                    <path d="M22.5054706,11.4542353 C24.3125294,9.64717647 25.0260588,7.16129412 24.649,4.81717647 C22.3048824,4.44011765 19.819,5.15305882 18.0119412,6.96011765 C16.2048824,8.76776471 15.4913529,11.2530588 15.8684118,13.5977647 C18.2131176,13.9742353 20.6984118,13.2612941 22.5054706,11.4542353" id="Fill-33" fill="#F15A24"></path>
                    <path d="M38.0552353,7.97476471 L38.0552353,10.2324118 L39.5317059,10.2324118 C39.9375882,10.2324118 40.2540588,10.1359412 40.4822941,9.94241176 C40.7105294,9.74888235 40.8240588,9.48241176 40.8240588,9.14064706 C40.8240588,8.37476471 40.4275882,7.98652941 39.6352353,7.97476471 L38.0552353,7.97476471 Z M38.0552353,6.75711765 L39.3305294,6.75711765 C40.1999412,6.74182353 40.6346471,6.39476471 40.6346471,5.71711765 C40.6346471,5.33829412 40.5240588,5.06535294 40.3040588,4.89888235 C40.0840588,4.73182353 39.7364118,4.64888235 39.2617059,4.64888235 L38.0552353,4.64888235 L38.0552353,6.75711765 Z M36.3317059,11.6165294 L36.3317059,3.253 L39.2617059,3.253 C40.2764118,3.253 41.0464118,3.44711765 41.5711176,3.83594118 C42.0952353,4.22476471 42.3575882,4.79476471 42.3575882,5.54476471 C42.3575882,5.95476471 42.2528824,6.31594118 42.0417059,6.62770588 C41.8311176,6.93947059 41.5381765,7.16829412 41.1628824,7.31417647 C41.5922941,7.42123529 41.9299412,7.63829412 42.177,7.963 C42.4240588,8.28829412 42.5475882,8.68711765 42.5475882,9.15829412 C42.5475882,9.96241176 42.2905294,10.5712353 41.7775882,10.9847647 C41.2646471,11.3982941 40.5328824,11.6088824 39.5834706,11.6165294 L36.3317059,11.6165294 Z" id="Fill-35" fill="#0E8938"></path>
                    <path d="M49.3948824,11.6167647 L43.6619412,11.6167647 L43.6619412,10.4791176 L46.3678235,7.59558824 C46.739,7.19029412 47.0137059,6.835 47.1919412,6.53264706 C47.3701765,6.23088235 47.459,5.94323529 47.459,5.67147059 C47.459,5.30029412 47.3654706,5.00794118 47.1772353,4.795 C46.9895882,4.58264706 46.7219412,4.47617647 46.3731176,4.47617647 C45.9984118,4.47617647 45.7025294,4.60558824 45.4854706,4.86441176 C45.269,5.12264706 45.1613529,5.46205882 45.1613529,5.88382353 L43.4954706,5.88382353 C43.4954706,5.375 43.6172353,4.90970588 43.8601765,4.48794118 C44.1031176,4.06617647 44.4472353,3.73676471 44.8913529,3.49676471 C45.3354706,3.25735294 45.839,3.13794118 46.4019412,3.13794118 C47.2637059,3.13794118 47.9331176,3.34441176 48.4095882,3.75852941 C48.8866471,4.17205882 49.1248824,4.75558824 49.1248824,5.51029412 C49.1248824,5.92382353 49.0172353,6.34558824 48.8031176,6.77441176 C48.589,7.20264706 48.2213529,7.70264706 47.7001765,8.27323529 L45.799,10.2785294 L49.3948824,10.2785294 L49.3948824,11.6167647 Z" id="Fill-37" fill="#0E8938"></path>
                    <path d="M52.3130588,7.97476471 L52.3130588,10.2324118 L53.7895294,10.2324118 C54.1954118,10.2324118 54.5118824,10.1359412 54.7401176,9.94241176 C54.9683529,9.74888235 55.0818824,9.48241176 55.0818824,9.14064706 C55.0818824,8.37476471 54.6854118,7.98652941 53.8930588,7.97476471 L52.3130588,7.97476471 Z M52.3130588,6.75711765 L53.5883529,6.75711765 C54.4577647,6.74182353 54.8924706,6.39476471 54.8924706,5.71711765 C54.8924706,5.33829412 54.7818824,5.06535294 54.5618824,4.89888235 C54.3418824,4.73182353 53.9942353,4.64888235 53.5195294,4.64888235 L52.3130588,4.64888235 L52.3130588,6.75711765 Z M50.5895294,11.6165294 L50.5895294,3.253 L53.5195294,3.253 C54.5342353,3.253 55.3042353,3.44711765 55.8289412,3.83594118 C56.3530588,4.22476471 56.6154118,4.79476471 56.6154118,5.54476471 C56.6154118,5.95476471 56.5107059,6.31594118 56.2995294,6.62770588 C56.0889412,6.93947059 55.796,7.16829412 55.4207059,7.31417647 C55.8501176,7.42123529 56.1877647,7.63829412 56.4348235,7.963 C56.6818824,8.28829412 56.8054118,8.68711765 56.8054118,9.15829412 C56.8054118,9.96241176 56.5483529,10.5712353 56.0354118,10.9847647 C55.5224706,11.3982941 54.7907059,11.6088824 53.8412941,11.6165294 L50.5895294,11.6165294 Z" id="Fill-39" fill="#0E8938"></path>
                    <polygon id="Fill-41" fill="#000000" points="41.3640588 22.3164706 38.0552353 22.3164706 38.0552353 25.7347059 36.3317059 25.7347059 36.3317059 17.3705882 41.7775882 17.3705882 41.7775882 18.7664706 38.0552353 18.7664706 38.0552353 20.9264706 41.3640588 20.9264706"></polygon>
                    <mask id="mask-6" fill="white">
                        <use xlink:href="#path-5"></use>
                    </mask>
                    <g id="Clip-44"></g>
                    <polygon id="Fill-43" fill="#000000" mask="url(#mask-6)" points="42.7541176 25.7342941 44.42 25.7342941 44.42 16.9107647 42.7541176 16.9107647"></polygon>
                    <path d="M47.189,22.687 C47.189,23.2781765 47.2995882,23.7293529 47.5219412,24.0422941 C47.7442941,24.3546471 48.0619412,24.5111176 48.4760588,24.5111176 C48.8778235,24.5111176 49.1919412,24.3564118 49.4178235,24.0475882 C49.6437059,23.7387647 49.7566471,23.2446471 49.7566471,22.5664118 C49.7566471,21.987 49.6437059,21.5387647 49.4178235,21.2199412 C49.1919412,20.9017059 48.8737059,20.7422941 48.4642941,20.7422941 C48.0584118,20.7422941 47.7442941,20.9011176 47.5219412,21.217 C47.2995882,21.5334706 47.189,22.0234706 47.189,22.687 L47.189,22.687 Z M45.529,22.5693529 C45.529,21.9522941 45.6478235,21.4028824 45.8848824,20.9205294 C46.1225294,20.4381765 46.4642941,20.0646471 46.9101765,19.8005294 C47.3566471,19.5364118 47.8742941,19.4040588 48.4642941,19.4040588 C49.3031176,19.4040588 49.9878235,19.6599412 50.5178235,20.1740588 C51.0484118,20.6875882 51.3437059,21.3834706 51.4054706,22.2646471 L51.4166471,22.6899412 C51.4166471,23.6434706 51.1507647,24.4087647 50.6184118,24.9846471 C50.0860588,25.5611176 49.3719412,25.8493529 48.4760588,25.8493529 C47.5795882,25.8493529 46.8642941,25.5622941 46.3301765,24.9875882 C45.7960588,24.4134706 45.529,23.6317059 45.529,22.6440588 L45.529,22.5693529 Z" id="Fill-45" fill="#000000" mask="url(#mask-6)"></path>
                    <polygon id="Fill-46" fill="#000000" mask="url(#mask-6)" points="57.845 23.4768824 58.6608824 19.5186471 60.2632353 19.5186471 58.6779412 25.7345294 57.2879412 25.7345294 56.1102941 21.8221765 54.9326471 25.7345294 53.5479412 25.7345294 51.9626471 19.5186471 53.5655882 19.5186471 54.3755882 23.471 55.5126471 19.5186471 56.7132353 19.5186471"></polygon>
                    <path d="M63.7560588,20.7424706 C63.4266471,20.7424706 63.1595882,20.8536471 62.9548824,21.0765882 C62.7495882,21.3001176 62.6184118,21.6195294 62.5613529,22.0348235 L64.8707647,22.0348235 L64.8707647,21.9024706 C64.8631176,21.5330588 64.7631176,21.2471765 64.5719412,21.046 C64.3807647,20.8436471 64.1084118,20.7424706 63.7560588,20.7424706 M63.9454706,25.8495294 C63.0337059,25.8495294 62.2925294,25.5701176 61.7195882,25.0107059 C61.1466471,24.4512941 60.8607647,23.7065882 60.8607647,22.776 L60.8607647,22.6154118 C60.8607647,21.9912941 60.9813529,21.4330588 61.2225294,20.9407059 C61.4642941,20.4483529 61.8060588,20.0689412 62.2484118,19.8030588 C62.6901765,19.5371765 63.1948824,19.4042353 63.7619412,19.4042353 C64.6119412,19.4042353 65.2813529,19.6718824 65.7695882,20.2083529 C66.2578235,20.7448235 66.5019412,21.5042353 66.5019412,22.4889412 L66.5019412,23.1665882 L62.5437059,23.1665882 C62.5972353,23.5724706 62.7595882,23.8983529 63.0295882,24.1430588 C63.2995882,24.3877647 63.6413529,24.5107059 64.0548824,24.5107059 C64.6942941,24.5107059 65.1937059,24.2789412 65.5542941,23.816 L66.3695882,24.7289412 C66.1213529,25.0818824 65.7837059,25.3565882 65.359,25.5536471 C64.9337059,25.7507059 64.4625294,25.8495294 63.9454706,25.8495294" id="Fill-47" fill="#000000" mask="url(#mask-6)"></path>
                    <path d="M70.9366471,21.0756471 C70.7107647,21.0444706 70.5113529,21.0297647 70.339,21.0297647 C69.7113529,21.0297647 69.2995882,21.2421176 69.1042941,21.6674118 L69.1042941,25.7344706 L67.4442941,25.7344706 L67.4442941,19.5191765 L69.0125294,19.5191765 L69.0584118,20.2597647 C69.3913529,19.6891765 69.8525294,19.4038824 70.4425294,19.4038824 C70.6266471,19.4038824 70.799,19.4291765 70.9595882,19.4785882 L70.9366471,21.0756471 Z" id="Fill-48" fill="#000000" mask="url(#mask-6)"></path>
                    <path d="M75.1014118,24.0168235 C75.1014118,23.8132941 75.0008235,23.6538824 74.7996471,23.5374118 C74.5990588,23.4203529 74.2761176,23.3162353 73.832,23.2238824 C72.3537647,22.9138824 71.6143529,22.2856471 71.6143529,21.3397647 C71.6143529,20.7885882 71.8431765,20.328 72.3008235,19.9585882 C72.7590588,19.5891765 73.3567059,19.4038824 74.0961176,19.4038824 C74.8849412,19.4038824 75.5161176,19.5903529 75.9890588,19.9609412 C76.462,20.3321176 76.6984706,20.8150588 76.6984706,21.4085882 L75.0384706,21.4085882 C75.0384706,21.1709412 74.962,20.9750588 74.8084706,20.8197647 C74.6549412,20.6650588 74.4161176,20.5874118 74.0902353,20.5874118 C73.8108235,20.5874118 73.5943529,20.6503529 73.4414118,20.7768235 C73.2878824,20.9032941 73.2114118,21.0638824 73.2114118,21.2597647 C73.2114118,21.4432941 73.2990588,21.5915294 73.4725882,21.7044706 C73.6467059,21.818 73.9408235,21.9156471 74.3543529,21.9974118 C74.7684706,22.0797647 75.1167059,22.1727059 75.4002353,22.2762353 C76.2772941,22.598 76.7155294,23.1550588 76.7155294,23.948 C76.7155294,24.5144706 76.4725882,24.9732941 75.9861176,25.3238824 C75.4996471,25.6738824 74.8714118,25.8491765 74.102,25.8491765 C73.5808235,25.8491765 73.1184706,25.7562353 72.7143529,25.5709412 C72.3108235,25.3850588 71.9937647,25.1303529 71.7637647,24.8068235 C71.5343529,24.4832941 71.4190588,24.1338824 71.4190588,23.7585882 L72.9931765,23.7585882 C73.0084706,24.0532941 73.1178824,24.2785882 73.3208235,24.4362353 C73.5231765,24.5932941 73.7955294,24.6715294 74.1361176,24.6715294 C74.4537647,24.6715294 74.6949412,24.6115294 74.8572941,24.4909412 C75.0196471,24.3703529 75.1014118,24.2121176 75.1014118,24.0168235" id="Fill-49" fill="#000000" mask="url(#mask-6)"></path>
                </g>
            </g>
        </g>
    </g>
</svg>